<mxfile host="app.diagrams.net" agent="Mozilla/5.0 (Windows NT 10.0; Win64; x64) AppleWebKit/537.36 (KHTML, like Gecko) Chrome/137.0.0.0 Safari/537.36" version="27.1.5">
  <diagram name="Page-1" id="DYus6r99QH-YhqP8SPfU">
    <mxGraphModel dx="1314" dy="670" grid="1" gridSize="10" guides="1" tooltips="1" connect="1" arrows="1" fold="1" page="1" pageScale="1" pageWidth="827" pageHeight="1169" math="0" shadow="0">
      <root>
        <mxCell id="0" />
        <mxCell id="1" parent="0" />
        <mxCell id="HPA1k4R3t_jq5nEZBtTo-7" value="DOCKER" style="shape=hexagon;perimeter=hexagonPerimeter2;whiteSpace=wrap;html=1;fixedSize=1;align=right;fillColor=#dae8fc;strokeColor=#6c8ebf;" vertex="1" parent="1">
          <mxGeometry x="350" y="710" width="450" height="100" as="geometry" />
        </mxCell>
        <mxCell id="HPA1k4R3t_jq5nEZBtTo-14" style="edgeStyle=orthogonalEdgeStyle;rounded=0;orthogonalLoop=1;jettySize=auto;html=1;exitX=0.625;exitY=0;exitDx=0;exitDy=0;" edge="1" parent="1" source="HPA1k4R3t_jq5nEZBtTo-8">
          <mxGeometry relative="1" as="geometry">
            <mxPoint x="309.9999999999998" y="600" as="targetPoint" />
            <Array as="points">
              <mxPoint x="209" y="680" />
              <mxPoint x="310" y="680" />
            </Array>
          </mxGeometry>
        </mxCell>
        <mxCell id="HPA1k4R3t_jq5nEZBtTo-8" value="DOCKER METABASE" style="shape=hexagon;perimeter=hexagonPerimeter2;whiteSpace=wrap;html=1;fixedSize=1;align=center;fillColor=#dae8fc;strokeColor=#6c8ebf;" vertex="1" parent="1">
          <mxGeometry x="80" y="720" width="206.5" height="80" as="geometry" />
        </mxCell>
        <mxCell id="HPA1k4R3t_jq5nEZBtTo-6" value="DOCKER" style="shape=hexagon;perimeter=hexagonPerimeter2;whiteSpace=wrap;html=1;fixedSize=1;align=right;fillColor=#dae8fc;strokeColor=#6c8ebf;" vertex="1" parent="1">
          <mxGeometry x="110" y="330" width="570" height="120" as="geometry" />
        </mxCell>
        <mxCell id="RvFatmFrUb0J1HVwR3kz-6" value="FLASK" style="rounded=0;whiteSpace=wrap;html=1;align=right;fillColor=#ffe6cc;strokeColor=#d79b00;" parent="1" vertex="1">
          <mxGeometry x="140" y="340" width="478.5" height="100" as="geometry" />
        </mxCell>
        <mxCell id="RvFatmFrUb0J1HVwR3kz-7" style="edgeStyle=orthogonalEdgeStyle;rounded=0;orthogonalLoop=1;jettySize=auto;html=1;exitX=0.5;exitY=1;exitDx=0;exitDy=0;" parent="1" source="RvFatmFrUb0J1HVwR3kz-2" target="RvFatmFrUb0J1HVwR3kz-4" edge="1">
          <mxGeometry relative="1" as="geometry" />
        </mxCell>
        <mxCell id="RvFatmFrUb0J1HVwR3kz-2" value="Opendata&lt;br&gt;CSV&amp;nbsp;&lt;span style=&quot;background-color: transparent; color: light-dark(rgb(0, 0, 0), rgb(255, 255, 255));&quot;&gt;prix station essence&lt;/span&gt;" style="rounded=0;whiteSpace=wrap;html=1;" parent="1" vertex="1">
          <mxGeometry x="145" y="230" width="140" height="60" as="geometry" />
        </mxCell>
        <mxCell id="RvFatmFrUb0J1HVwR3kz-8" style="edgeStyle=orthogonalEdgeStyle;rounded=0;orthogonalLoop=1;jettySize=auto;html=1;exitX=0.5;exitY=1;exitDx=0;exitDy=0;" parent="1" source="RvFatmFrUb0J1HVwR3kz-3" target="RvFatmFrUb0J1HVwR3kz-5" edge="1">
          <mxGeometry relative="1" as="geometry" />
        </mxCell>
        <mxCell id="RvFatmFrUb0J1HVwR3kz-3" value="Librairie Python&lt;br&gt;cours de bourse BRENT" style="rounded=0;whiteSpace=wrap;html=1;" parent="1" vertex="1">
          <mxGeometry x="299" y="230" width="140" height="60" as="geometry" />
        </mxCell>
        <mxCell id="RvFatmFrUb0J1HVwR3kz-4" value="ETL&lt;br&gt;(scheduler 1J)" style="rounded=0;whiteSpace=wrap;html=1;" parent="1" vertex="1">
          <mxGeometry x="155" y="360" width="120" height="60" as="geometry" />
        </mxCell>
        <mxCell id="RvFatmFrUb0J1HVwR3kz-5" value="ETL&lt;br&gt;(sheduler 1J)" style="rounded=0;whiteSpace=wrap;html=1;" parent="1" vertex="1">
          <mxGeometry x="309" y="360" width="120" height="60" as="geometry" />
        </mxCell>
        <mxCell id="RvFatmFrUb0J1HVwR3kz-23" style="edgeStyle=orthogonalEdgeStyle;rounded=0;orthogonalLoop=1;jettySize=auto;html=1;exitX=1;exitY=0.5;exitDx=0;exitDy=0;exitPerimeter=0;entryX=0.5;entryY=1;entryDx=0;entryDy=0;" parent="1" source="RvFatmFrUb0J1HVwR3kz-9" target="RvFatmFrUb0J1HVwR3kz-19" edge="1">
          <mxGeometry relative="1" as="geometry" />
        </mxCell>
        <mxCell id="HPA1k4R3t_jq5nEZBtTo-13" style="edgeStyle=orthogonalEdgeStyle;rounded=0;orthogonalLoop=1;jettySize=auto;html=1;exitX=0.145;exitY=1;exitDx=0;exitDy=-4.35;exitPerimeter=0;entryX=0.375;entryY=0;entryDx=0;entryDy=0;" edge="1" parent="1" source="RvFatmFrUb0J1HVwR3kz-9" target="HPA1k4R3t_jq5nEZBtTo-8">
          <mxGeometry relative="1" as="geometry" />
        </mxCell>
        <mxCell id="RvFatmFrUb0J1HVwR3kz-9" value="MongoDB&lt;br&gt;Cloud" style="shape=cylinder3;whiteSpace=wrap;html=1;boundedLbl=1;backgroundOutline=1;size=15;fillColor=#f8cecc;strokeColor=#b85450;" parent="1" vertex="1">
          <mxGeometry x="275" y="515" width="60" height="80" as="geometry" />
        </mxCell>
        <mxCell id="RvFatmFrUb0J1HVwR3kz-19" value="API Sauvegarde MongoDB&lt;br&gt;(scheduler 7J)" style="rounded=0;whiteSpace=wrap;html=1;" parent="1" vertex="1">
          <mxGeometry x="449" y="360" width="120" height="60" as="geometry" />
        </mxCell>
        <mxCell id="RvFatmFrUb0J1HVwR3kz-20" style="edgeStyle=orthogonalEdgeStyle;rounded=0;orthogonalLoop=1;jettySize=auto;html=1;exitX=0.25;exitY=1;exitDx=0;exitDy=0;entryX=0.145;entryY=0;entryDx=0;entryDy=4.35;entryPerimeter=0;" parent="1" source="RvFatmFrUb0J1HVwR3kz-4" target="RvFatmFrUb0J1HVwR3kz-9" edge="1">
          <mxGeometry relative="1" as="geometry" />
        </mxCell>
        <mxCell id="RvFatmFrUb0J1HVwR3kz-21" style="edgeStyle=orthogonalEdgeStyle;rounded=0;orthogonalLoop=1;jettySize=auto;html=1;exitX=0.25;exitY=1;exitDx=0;exitDy=0;entryX=0.5;entryY=0;entryDx=0;entryDy=0;entryPerimeter=0;" parent="1" source="RvFatmFrUb0J1HVwR3kz-5" target="RvFatmFrUb0J1HVwR3kz-9" edge="1">
          <mxGeometry relative="1" as="geometry" />
        </mxCell>
        <mxCell id="RvFatmFrUb0J1HVwR3kz-22" style="edgeStyle=orthogonalEdgeStyle;rounded=0;orthogonalLoop=1;jettySize=auto;html=1;exitX=0.25;exitY=1;exitDx=0;exitDy=0;entryX=1.002;entryY=0.252;entryDx=0;entryDy=0;entryPerimeter=0;" parent="1" source="RvFatmFrUb0J1HVwR3kz-19" target="RvFatmFrUb0J1HVwR3kz-9" edge="1">
          <mxGeometry relative="1" as="geometry" />
        </mxCell>
        <mxCell id="RvFatmFrUb0J1HVwR3kz-24" value="Service de&lt;br&gt;&amp;nbsp;stockage S3" style="ellipse;shape=cloud;whiteSpace=wrap;html=1;fillColor=#f8cecc;strokeColor=#b85450;" parent="1" vertex="1">
          <mxGeometry x="560" y="530" width="120" height="80" as="geometry" />
        </mxCell>
        <mxCell id="RvFatmFrUb0J1HVwR3kz-25" style="edgeStyle=orthogonalEdgeStyle;rounded=0;orthogonalLoop=1;jettySize=auto;html=1;exitX=0.75;exitY=1;exitDx=0;exitDy=0;entryX=0.449;entryY=0.091;entryDx=0;entryDy=0;entryPerimeter=0;" parent="1" source="RvFatmFrUb0J1HVwR3kz-19" target="RvFatmFrUb0J1HVwR3kz-24" edge="1">
          <mxGeometry relative="1" as="geometry" />
        </mxCell>
        <mxCell id="HPA1k4R3t_jq5nEZBtTo-1" value="FLASK" style="rounded=0;whiteSpace=wrap;html=1;align=right;fillColor=#ffe6cc;strokeColor=#d79b00;" vertex="1" parent="1">
          <mxGeometry x="400" y="720" width="340" height="80" as="geometry" />
        </mxCell>
        <mxCell id="HPA1k4R3t_jq5nEZBtTo-4" value="Sauvegarde Dashboards Metabase&lt;br&gt;(scheduler 7J)" style="rounded=0;whiteSpace=wrap;html=1;" vertex="1" parent="1">
          <mxGeometry x="414" y="730" width="126" height="60" as="geometry" />
        </mxCell>
        <mxCell id="HPA1k4R3t_jq5nEZBtTo-15" style="edgeStyle=orthogonalEdgeStyle;rounded=0;orthogonalLoop=1;jettySize=auto;html=1;exitX=0;exitY=0.25;exitDx=0;exitDy=0;entryX=0.968;entryY=0.334;entryDx=0;entryDy=0;entryPerimeter=0;" edge="1" parent="1" source="HPA1k4R3t_jq5nEZBtTo-4" target="HPA1k4R3t_jq5nEZBtTo-8">
          <mxGeometry relative="1" as="geometry" />
        </mxCell>
        <mxCell id="HPA1k4R3t_jq5nEZBtTo-16" style="edgeStyle=orthogonalEdgeStyle;rounded=0;orthogonalLoop=1;jettySize=auto;html=1;exitX=1;exitY=0.75;exitDx=0;exitDy=0;entryX=0;entryY=0.75;entryDx=0;entryDy=0;" edge="1" parent="1" source="HPA1k4R3t_jq5nEZBtTo-8" target="HPA1k4R3t_jq5nEZBtTo-4">
          <mxGeometry relative="1" as="geometry" />
        </mxCell>
        <mxCell id="HPA1k4R3t_jq5nEZBtTo-22" style="edgeStyle=orthogonalEdgeStyle;rounded=0;orthogonalLoop=1;jettySize=auto;html=1;exitX=0.5;exitY=1;exitDx=0;exitDy=0;entryX=0.625;entryY=1;entryDx=0;entryDy=0;" edge="1" parent="1" source="HPA1k4R3t_jq5nEZBtTo-18" target="HPA1k4R3t_jq5nEZBtTo-8">
          <mxGeometry relative="1" as="geometry" />
        </mxCell>
        <mxCell id="HPA1k4R3t_jq5nEZBtTo-18" value="Chargement Sauvegarde Dashboards Metabase" style="rounded=0;whiteSpace=wrap;html=1;" vertex="1" parent="1">
          <mxGeometry x="555" y="730" width="130" height="60" as="geometry" />
        </mxCell>
        <mxCell id="HPA1k4R3t_jq5nEZBtTo-19" style="edgeStyle=orthogonalEdgeStyle;rounded=0;orthogonalLoop=1;jettySize=auto;html=1;exitX=0.25;exitY=0;exitDx=0;exitDy=0;entryX=0.265;entryY=0.849;entryDx=0;entryDy=0;entryPerimeter=0;" edge="1" parent="1" source="HPA1k4R3t_jq5nEZBtTo-4" target="RvFatmFrUb0J1HVwR3kz-24">
          <mxGeometry relative="1" as="geometry" />
        </mxCell>
        <mxCell id="HPA1k4R3t_jq5nEZBtTo-20" style="edgeStyle=orthogonalEdgeStyle;rounded=0;orthogonalLoop=1;jettySize=auto;html=1;exitX=0.5;exitY=0;exitDx=0;exitDy=0;entryX=0.502;entryY=0.989;entryDx=0;entryDy=0;entryPerimeter=0;" edge="1" parent="1" source="HPA1k4R3t_jq5nEZBtTo-18" target="RvFatmFrUb0J1HVwR3kz-24">
          <mxGeometry relative="1" as="geometry" />
        </mxCell>
        <mxCell id="HPA1k4R3t_jq5nEZBtTo-24" style="edgeStyle=orthogonalEdgeStyle;rounded=0;orthogonalLoop=1;jettySize=auto;html=1;exitX=0.8;exitY=0.8;exitDx=0;exitDy=0;exitPerimeter=0;entryX=0.806;entryY=0.064;entryDx=0;entryDy=0;entryPerimeter=0;" edge="1" parent="1" source="RvFatmFrUb0J1HVwR3kz-24" target="HPA1k4R3t_jq5nEZBtTo-18">
          <mxGeometry relative="1" as="geometry" />
        </mxCell>
      </root>
    </mxGraphModel>
  </diagram>
</mxfile>
